<svg width="18" height="18" fill="none" xmlns="http://www.w3.org/2000/svg"><path d="M15.457 2.27C13.816.755 11.774 0 9.336 0c-2.563 0-4.748.86-6.55 2.581C.981 4.304.078 6.444.078 9.007c0 2.457.86 4.568 2.574 6.338C4.375 17.115 6.688 18 9.6 18c1.755 0 3.478-.36 5.167-1.083.55-.235.819-.867.595-1.421a1.098 1.098 0 00-1.454-.595c-1.47.631-2.909.947-4.311.947-2.233 0-3.962-.68-5.189-2.041-1.223-1.359-1.836-2.956-1.836-4.789 0-1.99.657-3.65 1.968-4.983 1.308-1.328 2.92-1.997 4.83-1.997 1.759 0 3.246.547 4.458 1.641 1.212 1.095 1.817 2.472 1.817 4.131 0 1.135-.279 2.082-.833 2.835-.555.757-1.131 1.131-1.73 1.131-.323 0-.484-.173-.484-.521 0-.283.022-.614.062-.996l.683-5.585h-2.35l-.15.548c-.6-.489-1.256-.735-1.969-.735-1.13 0-2.1.452-2.904 1.351-.808.9-1.208 2.06-1.208 3.478 0 1.384.356 2.504 1.072 3.352.716.852 1.575 1.275 2.581 1.275.9 0 1.667-.379 2.306-1.131.481.723 1.19 1.083 2.126 1.083 1.377 0 2.567-.599 3.57-1.8 1.002-1.197 1.505-2.643 1.505-4.336 0-2.145-.819-3.977-2.464-5.49zm-5.412 8.449c-.415.558-.911.84-1.488.84-.392 0-.708-.205-.947-.616-.242-.412-.363-.922-.363-1.535 0-.757.169-1.366.506-1.829.338-.463.757-.698 1.256-.698.433 0 .819.173 1.157.522.338.349.507.811.507 1.391a3.178 3.178 0 01-.628 1.925z" fill="#fff"/></svg>