<svg xmlns="http://www.w3.org/2000/svg" viewBox="0 0 256 256" width="40" height="40"><path d="M128 25.6C71.45 25.6 25.6 71.45 25.6 128c0 47.983 33.041 88.132 77.585 99.243-.478-1.383-.785-2.987-.785-4.975v-17.502H89.532c-7.006 0-13.235-3.012-16.256-8.61-3.354-6.221-3.934-15.736-12.246-21.556-2.466-1.937-.588-4.147 2.253-3.848 5.248 1.485 9.6 5.086 13.696 10.428 4.08 5.35 6 6.562 13.62 6.562 3.694 0 9.224-.214 14.43-1.033 2.798-7.108 7.637-13.653 13.55-16.742-34.099-3.507-50.372-20.472-50.372-43.503 0-9.916 4.224-19.507 11.4-27.588-2.355-8.022-5.316-24.38.905-30.61 15.343 0 24.619 9.95 26.846 12.639 7.646-2.62 16.042-4.105 24.866-4.105 8.84 0 17.271 1.485 24.934 4.122 2.202-2.671 11.486-12.655 26.863-12.655 6.247 6.238 3.251 22.664.87 30.668 7.135 8.064 11.333 17.63 11.333 27.529 0 23.014-16.248 39.97-50.296 43.494 9.37 4.89 16.205 18.629 16.205 28.98v23.33c0 .887-.196 1.527-.298 2.287C201.736 210.568 230.4 172.68 230.4 128c0-56.55-45.85-102.4-102.4-102.4z" fill="#fff" font-family="none" font-weight="none" font-size="none" text-anchor="none"/></svg>