<svg width="32" height="32" fill="none" xmlns="http://www.w3.org/2000/svg"><g clip-path="url(#clip0_301_185)"><rect width="32" height="32" rx="16" fill="#EFF5FB"/><g clip-path="url(#clip1_301_185)"><path d="M8.283 15.77l3.686 1.394 1.427 4.65a.431.431 0 00.69.21l2.055-1.697a.607.607 0 01.747-.021l3.707 2.727a.433.433 0 00.68-.266L23.991 9.53a.437.437 0 00-.582-.5l-15.13 5.914a.443.443 0 00.004.824zm4.883.652l7.206-4.498c.13-.08.262.097.151.202l-5.946 5.601a1.255 1.255 0 00-.382.748l-.203 1.521c-.027.203-.308.223-.364.027l-.779-2.774a.74.74 0 01.317-.827z" fill="#333"/></g></g><defs><clipPath id="clip0_301_185"><path fill="#fff" d="M0 0h32v32H0z"/></clipPath><clipPath id="clip1_301_185"><path fill="#fff" transform="translate(8 9)" d="M0 0h16v14H0z"/></clipPath></defs></svg>