<svg width="20" height="20" fill="none" xmlns="http://www.w3.org/2000/svg"><path d="M19.957 15.496c-.057-.17-.417-.421-1.08-.752-.18-.105-.435-.247-.766-.426-.332-.18-.633-.346-.902-.498a27.78 27.78 0 01-.76-.44 18.301 18.301 0 00-.355-.249 4.005 4.005 0 00-.505-.305.93.93 0 00-.405-.1c-.19 0-.426.136-.71.405-.284.27-.544.564-.78.881-.237.318-.488.61-.753.88-.266.27-.484.406-.654.406a.964.964 0 01-.32-.071 3.304 3.304 0 01-.29-.12 5.33 5.33 0 01-.341-.2 8.664 8.664 0 00-.27-.163c-1.298-.72-2.41-1.544-3.339-2.472-.927-.928-1.751-2.04-2.471-3.338a8.25 8.25 0 00-.163-.27 5.121 5.121 0 01-.2-.34 3.076 3.076 0 01-.12-.292.961.961 0 01-.07-.32c-.001-.17.134-.388.404-.653s.563-.516.88-.753a6.9 6.9 0 00.881-.78c.27-.285.405-.521.405-.71a.927.927 0 00-.1-.406 3.95 3.95 0 00-.305-.504c-.137-.199-.22-.317-.249-.355-.141-.237-.288-.49-.44-.76a71.55 71.55 0 01-.497-.902c-.18-.331-.322-.587-.426-.767C4.925.46 4.674.1 4.503.042A.795.795 0 004.205 0c-.256 0-.59.047-1.001.142A5.625 5.625 0 002.23.44c-.474.2-.976.777-1.506 1.733C.242 3.063 0 3.943 0 4.815c0 .255.017.504.05.746.033.241.093.513.178.816.085.303.154.529.206.675.052.147.149.41.29.788.143.38.228.611.256.696a12.87 12.87 0 001.18 2.486c.747 1.212 1.768 2.465 3.06 3.757 1.293 1.293 2.545 2.313 3.757 3.061.73.455 1.558.848 2.486 1.18.085.028.317.113.696.255.379.142.641.24.788.291.147.053.372.121.675.207.303.085.575.144.817.178.241.032.49.049.745.049.871 0 1.752-.241 2.642-.724.956-.53 1.534-1.032 1.733-1.506.104-.237.203-.561.298-.973.095-.412.142-.746.142-1.002a.794.794 0 00-.042-.299z" fill="#fff"/></svg>